<?xml version="1.0" encoding="UTF-8"?>
<!DOCTYPE svg PUBLIC "-//W3C//DTD SVG 1.1//EN" "http://www.w3.org/Graphics/SVG/1.1/DTD/svg11.dtd">
<svg xmlns="http://www.w3.org/2000/svg" xmlns:xlink="http://www.w3.org/1999/xlink" version="1.1" width="990px" height="185px" viewBox="-0.5 -0.5 990 185"><defs><style type="text/css">@import url(https://fonts.googleapis.com/css?family=Architects+Daughter);&#xa;@import url(https://fonts.googleapis.com/css?family=Architects+Daughter);&#xa;</style></defs><g><path d="M 361 152 L 470.76 152" fill="none" stroke="#2e2e2e" stroke-width="2" stroke-miterlimit="10" pointer-events="stroke"/><path d="M 478.76 152 L 470.76 154.67 L 470.76 149.33 Z" fill="#2e2e2e" stroke="#2e2e2e" stroke-width="2" stroke-miterlimit="10" pointer-events="all"/><path d="M 561 154 L 650.76 154" fill="none" stroke="#2e2e2e" stroke-width="2" stroke-miterlimit="10" pointer-events="stroke"/><path d="M 658.76 154 L 650.76 156.67 L 650.76 151.33 Z" fill="#2e2e2e" stroke="#2e2e2e" stroke-width="2" stroke-miterlimit="10" pointer-events="all"/><path d="M 467.68 143.38 C 441.21 122.31 433.76 84.14 450.23 53.99 C 466.7 23.85 502.03 10.98 532.98 23.86 C 563.93 36.74 580.99 71.41 572.93 105.05 C 564.87 138.7 534.17 160.99 501.03 157.25 M 467.68 108.69 L 467.68 143.38 L 431 132.97" fill="none" stroke="#2e2e2e" stroke-width="2" stroke-miterlimit="10" pointer-events="all"/><path d="M 671 152 L 780.76 152" fill="none" stroke="#2e2e2e" stroke-width="2" stroke-miterlimit="10" pointer-events="stroke"/><path d="M 788.76 152 L 780.76 154.67 L 780.76 149.33 Z" fill="#2e2e2e" stroke="#2e2e2e" stroke-width="2" stroke-miterlimit="10" pointer-events="all"/><path d="M 871 154 L 960.76 154" fill="none" stroke="#2e2e2e" stroke-width="2" stroke-miterlimit="10" pointer-events="stroke"/><path d="M 968.76 154 L 960.76 156.67 L 960.76 151.33 Z" fill="#2e2e2e" stroke="#2e2e2e" stroke-width="2" stroke-miterlimit="10" pointer-events="all"/><path d="M 777.68 143.38 C 751.21 122.31 743.76 84.14 760.23 53.99 C 776.7 23.85 812.03 10.98 842.98 23.86 C 873.93 36.74 890.99 71.41 882.93 105.05 C 874.87 138.7 844.17 160.99 811.03 157.25 M 777.68 108.69 L 777.68 143.38 L 741 132.97" fill="none" stroke="#2e2e2e" stroke-width="2" stroke-miterlimit="10" pointer-events="all"/><path d="M 51 152 L 160.76 152" fill="none" stroke="#2e2e2e" stroke-width="2" stroke-miterlimit="10" pointer-events="stroke"/><path d="M 168.76 152 L 160.76 154.67 L 160.76 149.33 Z" fill="#2e2e2e" stroke="#2e2e2e" stroke-width="2" stroke-miterlimit="10" pointer-events="all"/><path d="M 251 154 L 340.76 154" fill="none" stroke="#2e2e2e" stroke-width="2" stroke-miterlimit="10" pointer-events="stroke"/><path d="M 348.76 154 L 340.76 156.67 L 340.76 151.33 Z" fill="#2e2e2e" stroke="#2e2e2e" stroke-width="2" stroke-miterlimit="10" pointer-events="all"/><path d="M 157.68 143.38 C 131.21 122.31 123.76 84.14 140.23 53.99 C 156.7 23.85 192.03 10.98 222.98 23.86 C 253.93 36.74 270.99 71.41 262.93 105.05 C 254.87 138.7 224.17 160.99 191.03 157.25 M 157.68 108.69 L 157.68 143.38 L 121 132.97" fill="none" stroke="#2e2e2e" stroke-width="2" stroke-miterlimit="10" pointer-events="all"/><ellipse cx="31" cy="154" rx="4" ry="4" fill="#2e2e2e" stroke="none" pointer-events="all"/><rect x="11" y="134" width="40" height="40" fill="none" stroke="none" pointer-events="all"/></g></svg>