<?xml version="1.0" encoding="UTF-8"?>
<!DOCTYPE svg PUBLIC "-//W3C//DTD SVG 1.1//EN" "http://www.w3.org/Graphics/SVG/1.1/DTD/svg11.dtd">
<svg xmlns="http://www.w3.org/2000/svg" xmlns:xlink="http://www.w3.org/1999/xlink" version="1.1" width="2001px" height="765px" viewBox="-0.5 -0.5 2001 765"><defs><style type="text/css">@import url(https://fonts.googleapis.com/css?family=Architects+Daughter);&#xa;</style></defs><g><g id="cell-UG5Qp5wjOd2xao8TWVIm-2"><rect x="0" y="0" width="2000" height="764" fill="none" stroke="none" pointer-events="all"/></g><g id="cell-UyEwv2TzJUn6vwixW6Vz-1"><path d="M 919.58 448.82 L 1089.14 447.79 L 1090.2 517.6 L 920.84 519.96 L 918.6 449.77" fill="#f24e1e" stroke="none" pointer-events="none"/><path d="M 920 449.5 M 920 449.5 C 966.97 452.07 1015.96 450.61 1090 449.5 M 920 449.5 C 964.42 450.34 1009.96 450.38 1090 449.5 M 1090 449.5 C 1092.11 478.92 1090.49 506.04 1090 519.5 M 1090 449.5 C 1089.04 468.67 1089.69 486.41 1090 519.5 M 1090 519.5 C 1039.68 519.14 986.99 518.4 920 519.5 M 1090 519.5 C 1043.11 519.18 994.87 520.02 920 519.5 M 920 519.5 C 918.84 503.16 920.16 486.89 920 449.5 M 920 519.5 C 920.56 497.38 920.05 474.91 920 449.5" fill="none" stroke="#000000" stroke-width="2" stroke-linejoin="round" stroke-linecap="round" stroke-miterlimit="10" pointer-events="none"/><path d="M 914.58 443.82 L 1084.14 442.79 L 1085.2 512.6 L 915.84 514.96 L 913.6 444.77" fill="#f24e1e" stroke="none" pointer-events="none"/><path d="M 915 444.5 M 915 444.5 C 961.97 447.07 1010.96 445.61 1085 444.5 M 915 444.5 C 959.42 445.34 1004.96 445.38 1085 444.5 M 1085 444.5 C 1087.11 473.92 1085.49 501.04 1085 514.5 M 1085 444.5 C 1084.04 463.67 1084.69 481.41 1085 514.5 M 1085 514.5 C 1034.68 514.14 981.99 513.4 915 514.5 M 1085 514.5 C 1038.11 514.18 989.87 515.02 915 514.5 M 915 514.5 C 913.84 498.16 915.16 481.89 915 444.5 M 915 514.5 C 915.56 492.38 915.05 469.91 915 444.5" fill="none" stroke="#000000" stroke-width="2" stroke-linejoin="round" stroke-linecap="round" stroke-miterlimit="10" pointer-events="none"/><path d="M 909.58 438.82 L 1079.14 437.79 L 1080.2 507.6 L 910.84 509.96 L 908.6 439.77" fill="#f24e1e" stroke="none" pointer-events="none"/><path d="M 910 439.5 M 910 439.5 C 956.97 442.07 1005.96 440.61 1080 439.5 M 910 439.5 C 954.42 440.34 999.96 440.38 1080 439.5 M 1080 439.5 C 1082.11 468.92 1080.49 496.04 1080 509.5 M 1080 439.5 C 1079.04 458.67 1079.69 476.41 1080 509.5 M 1080 509.5 C 1029.68 509.14 976.99 508.4 910 509.5 M 1080 509.5 C 1033.11 509.18 984.87 510.02 910 509.5 M 910 509.5 C 908.84 493.16 910.16 476.89 910 439.5 M 910 509.5 C 910.56 487.38 910.05 464.91 910 439.5" fill="none" stroke="#000000" stroke-width="2" stroke-linejoin="round" stroke-linecap="round" stroke-miterlimit="10" pointer-events="none"/></g><g id="cell-UyEwv2TzJUn6vwixW6Vz-2"><path d="M 1177.58 449.16 L 1349.55 450.65 L 1347.16 519.28 L 1178 521.4 L 1176.87 450.98" fill="#0fa958" stroke="none" pointer-events="none"/><path d="M 1178 449.5 M 1178 449.5 C 1214.17 451.46 1249.15 448.18 1348 449.5 M 1178 449.5 C 1219.67 447.98 1261.8 448.8 1348 449.5 M 1348 449.5 C 1349.04 472.75 1348.12 495.59 1348 519.5 M 1348 449.5 C 1348.75 464.95 1349.39 482.35 1348 519.5 M 1348 519.5 C 1308.62 518.4 1273.46 519.17 1178 519.5 M 1348 519.5 C 1312.56 517.89 1278.9 519.37 1178 519.5 M 1178 519.5 C 1180.41 500.27 1180.45 478.16 1178 449.5 M 1178 519.5 C 1177.71 504.38 1177.35 489.97 1178 449.5" fill="none" stroke="#000000" stroke-width="2" stroke-linejoin="round" stroke-linecap="round" stroke-miterlimit="10" pointer-events="none"/><path d="M 1172.58 444.16 L 1344.55 445.65 L 1342.16 514.28 L 1173 516.4 L 1171.87 445.98" fill="#0fa958" stroke="none" pointer-events="none"/><path d="M 1173 444.5 M 1173 444.5 C 1209.17 446.46 1244.15 443.18 1343 444.5 M 1173 444.5 C 1214.67 442.98 1256.8 443.8 1343 444.5 M 1343 444.5 C 1344.04 467.75 1343.12 490.59 1343 514.5 M 1343 444.5 C 1343.75 459.95 1344.39 477.35 1343 514.5 M 1343 514.5 C 1303.62 513.4 1268.46 514.17 1173 514.5 M 1343 514.5 C 1307.56 512.89 1273.9 514.37 1173 514.5 M 1173 514.5 C 1175.41 495.27 1175.45 473.16 1173 444.5 M 1173 514.5 C 1172.71 499.38 1172.35 484.97 1173 444.5" fill="none" stroke="#000000" stroke-width="2" stroke-linejoin="round" stroke-linecap="round" stroke-miterlimit="10" pointer-events="none"/><path d="M 1167.58 439.16 L 1339.55 440.65 L 1337.16 509.28 L 1168 511.4 L 1166.87 440.98" fill="#0fa958" stroke="none" pointer-events="none"/><path d="M 1168 439.5 M 1168 439.5 C 1204.17 441.46 1239.15 438.18 1338 439.5 M 1168 439.5 C 1209.67 437.98 1251.8 438.8 1338 439.5 M 1338 439.5 C 1339.04 462.75 1338.12 485.59 1338 509.5 M 1338 439.5 C 1338.75 454.95 1339.39 472.35 1338 509.5 M 1338 509.5 C 1298.62 508.4 1263.46 509.17 1168 509.5 M 1338 509.5 C 1302.56 507.89 1268.9 509.37 1168 509.5 M 1168 509.5 C 1170.41 490.27 1170.45 468.16 1168 439.5 M 1168 509.5 C 1167.71 494.38 1167.35 479.97 1168 439.5" fill="none" stroke="#000000" stroke-width="2" stroke-linejoin="round" stroke-linecap="round" stroke-miterlimit="10" pointer-events="none"/></g><g id="cell-UyEwv2TzJUn6vwixW6Vz-0"><path d="M 1015 439.5 M 1015 439.5 C 1014.58 348.54 1055.74 304.04 1135 304.6 M 1015 439.5 C 1016.42 350.05 1056.93 303.48 1135 304.6 M 1135 304.6 C 1213.33 303.66 1256.29 345.82 1255 431.26 M 1135 304.6 C 1215.66 304.39 1255.31 347.78 1255 431.26" fill="none" stroke="#000000" stroke-width="2" stroke-linejoin="round" stroke-linecap="round" stroke-miterlimit="10" stroke-dasharray="6 6" pointer-events="none"/><path d="M 1252.63 428.91 C 1252.63 428.91 1252.63 428.91 1252.63 428.91 M 1252.63 428.91 C 1252.63 428.91 1252.63 428.91 1252.63 428.91" fill="none" stroke="#000000" stroke-linejoin="round" stroke-linecap="round" stroke-miterlimit="10" pointer-events="none"/><path d="M 1255 437.26 M 1255 437.26 C 1253.99 434.86 1253.3 431.45 1252.33 429.26 M 1255 437.26 C 1254.15 435.16 1253.15 432.47 1252.33 429.26 M 1252.33 429.26 C 1252.89 429.51 1253.47 430.02 1255 431.26 M 1252.33 429.26 C 1253.38 429.93 1254.34 430.53 1255 431.26 M 1255 431.26 C 1255.71 431.07 1256.23 430.21 1257.67 429.26 M 1255 431.26 C 1255.97 430.5 1256.83 429.84 1257.67 429.26 M 1257.67 429.26 C 1256.14 432.89 1254.87 435.84 1255 437.26 M 1257.67 429.26 C 1257.2 430.94 1256.3 433.14 1255 437.26" fill="none" stroke="#000000" stroke-width="2" stroke-linejoin="round" stroke-linecap="round" stroke-miterlimit="10" pointer-events="none"/></g><g id="cell-UyEwv2TzJUn6vwixW6Vz-3"><path d="M 833 479.5 M 833 479.5 C 851.63 477.64 871.7 478.68 899.76 479.5 M 833 479.5 C 851.07 480.08 869.27 480.14 899.76 479.5" fill="none" stroke="#000000" stroke-width="2" stroke-linejoin="round" stroke-linecap="round" stroke-miterlimit="10" stroke-dasharray="6 6" pointer-events="none"/><path d="M 899.54 477.08 C 899.54 477.08 899.54 477.08 899.54 477.08 M 899.54 477.08 C 899.54 477.08 899.54 477.08 899.54 477.08" fill="none" stroke="#000000" stroke-linejoin="round" stroke-linecap="round" stroke-miterlimit="10" pointer-events="none"/><path d="M 907.76 479.5 M 907.76 479.5 C 905.4 479.61 904.05 480.98 899.76 482.17 M 907.76 479.5 C 905.87 480.01 904.25 480.7 899.76 482.17 M 899.76 482.17 C 899.23 480.12 899.75 478.77 899.76 476.83 M 899.76 482.17 C 899.88 480.83 899.69 479.44 899.76 476.83 M 899.76 476.83 C 901.83 477.92 904.23 477.98 907.76 479.5 M 899.76 476.83 C 903.04 477.42 906.26 479.09 907.76 479.5" fill="none" stroke="#000000" stroke-width="2" stroke-linejoin="round" stroke-linecap="round" stroke-miterlimit="10" pointer-events="none"/></g><g id="cell-UyEwv2TzJUn6vwixW6Vz-4"><path d="M 662.58 449.84 L 831.36 448.36 L 834.09 518.64 L 661.33 520.28 L 662.41 449.39" fill="#a259ff" stroke="none" pointer-events="none"/><path d="M 663 449.5 M 663 449.5 C 703.57 449.64 744.55 450.71 833 449.5 M 663 449.5 C 699.18 448.66 734.48 447.05 833 449.5 M 833 449.5 C 831.92 474.4 832.38 502.7 833 519.5 M 833 449.5 C 833.77 475.5 832.37 502.22 833 519.5 M 833 519.5 C 785.5 520.93 739.41 520.7 663 519.5 M 833 519.5 C 790.47 520.71 745.95 519.48 663 519.5 M 663 519.5 C 664.56 504.48 662.02 488.7 663 449.5 M 663 519.5 C 662.43 492.38 662.35 466.07 663 449.5" fill="none" stroke="#000000" stroke-width="2" stroke-linejoin="round" stroke-linecap="round" stroke-miterlimit="10" pointer-events="none"/><path d="M 657.58 444.84 L 826.36 443.36 L 829.09 513.64 L 656.33 515.28 L 657.41 444.39" fill="#a259ff" stroke="none" pointer-events="none"/><path d="M 658 444.5 M 658 444.5 C 698.57 444.64 739.55 445.71 828 444.5 M 658 444.5 C 694.18 443.66 729.48 442.05 828 444.5 M 828 444.5 C 826.92 469.4 827.38 497.7 828 514.5 M 828 444.5 C 828.77 470.5 827.37 497.22 828 514.5 M 828 514.5 C 780.5 515.93 734.41 515.7 658 514.5 M 828 514.5 C 785.47 515.71 740.95 514.48 658 514.5 M 658 514.5 C 659.56 499.48 657.02 483.7 658 444.5 M 658 514.5 C 657.43 487.38 657.35 461.07 658 444.5" fill="none" stroke="#000000" stroke-width="2" stroke-linejoin="round" stroke-linecap="round" stroke-miterlimit="10" pointer-events="none"/><path d="M 652.58 439.84 L 821.36 438.36 L 824.09 508.64 L 651.33 510.28 L 652.41 439.39" fill="#a259ff" stroke="none" pointer-events="none"/><path d="M 653 439.5 M 653 439.5 C 693.57 439.64 734.55 440.71 823 439.5 M 653 439.5 C 689.18 438.66 724.48 437.05 823 439.5 M 823 439.5 C 821.92 464.4 822.38 492.7 823 509.5 M 823 439.5 C 823.77 465.5 822.37 492.22 823 509.5 M 823 509.5 C 775.5 510.93 729.41 510.7 653 509.5 M 823 509.5 C 780.47 510.71 735.95 509.48 653 509.5 M 653 509.5 C 654.56 494.48 652.02 478.7 653 439.5 M 653 509.5 C 652.43 482.38 652.35 456.07 653 439.5" fill="none" stroke="#000000" stroke-width="2" stroke-linejoin="round" stroke-linecap="round" stroke-miterlimit="10" pointer-events="none"/></g><g id="cell-UyEwv2TzJUn6vwixW6Vz-5"><path d="M 1434.58 450.18 L 1605.76 451.22 L 1605.06 520.33 L 1436.49 517.72 L 1434.68 450.59" fill="#2e2e2e" stroke="none" pointer-events="none"/><path d="M 1435 449.5 M 1435 449.5 C 1494.77 449.03 1559.75 448.28 1605 449.5 M 1435 449.5 C 1500.43 449.7 1568.32 448.87 1605 449.5 M 1605 449.5 C 1602.85 468.23 1604 488.25 1605 519.5 M 1605 449.5 C 1605.48 473.77 1606.07 496.15 1605 519.5 M 1605 519.5 C 1538.44 520.2 1471.89 521.46 1435 519.5 M 1605 519.5 C 1539.92 519.42 1475.97 518.83 1435 519.5 M 1435 519.5 C 1434.74 501.58 1434.91 479.97 1435 449.5 M 1435 519.5 C 1434.99 501.38 1435.05 483.13 1435 449.5" fill="none" stroke="#000000" stroke-width="2" stroke-linejoin="round" stroke-linecap="round" stroke-miterlimit="10" pointer-events="none"/><path d="M 1429.58 445.18 L 1600.76 446.22 L 1600.06 515.33 L 1431.49 512.72 L 1429.68 445.59" fill="#2e2e2e" stroke="none" pointer-events="none"/><path d="M 1430 444.5 M 1430 444.5 C 1489.77 444.03 1554.75 443.28 1600 444.5 M 1430 444.5 C 1495.43 444.7 1563.32 443.87 1600 444.5 M 1600 444.5 C 1597.85 463.23 1599 483.25 1600 514.5 M 1600 444.5 C 1600.48 468.77 1601.07 491.15 1600 514.5 M 1600 514.5 C 1533.44 515.2 1466.89 516.46 1430 514.5 M 1600 514.5 C 1534.92 514.42 1470.97 513.83 1430 514.5 M 1430 514.5 C 1429.74 496.58 1429.91 474.97 1430 444.5 M 1430 514.5 C 1429.99 496.38 1430.05 478.13 1430 444.5" fill="none" stroke="#000000" stroke-width="2" stroke-linejoin="round" stroke-linecap="round" stroke-miterlimit="10" pointer-events="none"/><path d="M 1424.58 440.18 L 1595.76 441.22 L 1595.06 510.33 L 1426.49 507.72 L 1424.68 440.59" fill="#2e2e2e" stroke="none" pointer-events="none"/><path d="M 1425 439.5 M 1425 439.5 C 1484.77 439.03 1549.75 438.28 1595 439.5 M 1425 439.5 C 1490.43 439.7 1558.32 438.87 1595 439.5 M 1595 439.5 C 1592.85 458.23 1594 478.25 1595 509.5 M 1595 439.5 C 1595.48 463.77 1596.07 486.15 1595 509.5 M 1595 509.5 C 1528.44 510.2 1461.89 511.46 1425 509.5 M 1595 509.5 C 1529.92 509.42 1465.97 508.83 1425 509.5 M 1425 509.5 C 1424.74 491.58 1424.91 469.97 1425 439.5 M 1425 509.5 C 1424.99 491.38 1425.05 473.13 1425 439.5" fill="none" stroke="#000000" stroke-width="2" stroke-linejoin="round" stroke-linecap="round" stroke-miterlimit="10" pointer-events="none"/></g><g id="cell-UyEwv2TzJUn6vwixW6Vz-6"><path d="M 485 439.5 M 485 439.5 C 484.99 406.45 482.92 376.01 485 324.5 M 485 439.5 C 484.85 407.73 485.95 374.89 485 324.5 M 485 324.5 C 568.22 323.58 648.28 321.84 738 324.5 M 485 324.5 C 568.84 323.11 654.04 324.46 738 324.5 M 738 324.5 C 737.81 367.34 737.7 405.89 738 431.26 M 738 324.5 C 738.38 366.79 738.74 407.14 738 431.26" fill="none" stroke="#000000" stroke-width="2" stroke-linejoin="round" stroke-linecap="round" stroke-miterlimit="10" stroke-dasharray="6 6" pointer-events="none"/><path d="M 735.09 429.53 C 735.09 429.53 735.09 429.53 735.09 429.53 M 735.09 429.53 C 735.09 429.53 735.09 429.53 735.09 429.53" fill="none" stroke="#000000" stroke-linejoin="round" stroke-linecap="round" stroke-miterlimit="10" pointer-events="none"/><path d="M 738 437.26 M 738 437.26 C 737.73 435.23 735.83 431.73 735.33 429.26 M 738 437.26 C 736.66 434.2 736.11 432.23 735.33 429.26 M 735.33 429.26 C 736.38 430.34 737.39 430.68 738 431.26 M 735.33 429.26 C 736.41 430.18 737.51 430.76 738 431.26 M 738 431.26 C 738.68 430.93 739.18 430.46 740.67 429.26 M 738 431.26 C 738.7 430.96 739.15 430.33 740.67 429.26 M 740.67 429.26 C 740.38 431.32 739.86 432.54 738 437.26 M 740.67 429.26 C 739.85 431.06 739.14 433.01 738 437.26" fill="none" stroke="#000000" stroke-width="2" stroke-linejoin="round" stroke-linecap="round" stroke-miterlimit="10" pointer-events="none"/></g><g id="cell-UyEwv2TzJUn6vwixW6Vz-7"><path d="M 404.58 450.86 L 576.57 448.94 L 576.98 519.69 L 404.82 520.6 L 405.22 449.01" fill="#ffc700" stroke="none" pointer-events="none"/><path d="M 405 449.5 M 405 449.5 C 439.16 451.22 472.15 450.81 575 449.5 M 405 449.5 C 464.93 448.37 524 449.12 575 449.5 M 575 449.5 C 576.13 473.88 574.66 495.36 575 519.5 M 575 449.5 C 575.5 468.33 574.05 488.02 575 519.5 M 575 519.5 C 534.32 522.73 490.84 518.99 405 519.5 M 575 519.5 C 534.83 518.84 496.02 517.54 405 519.5 M 405 519.5 C 403.89 505.79 405.48 490.51 405 449.5 M 405 519.5 C 404.7 503.37 405.05 487.24 405 449.5" fill="none" stroke="#000000" stroke-width="2" stroke-linejoin="round" stroke-linecap="round" stroke-miterlimit="10" pointer-events="none"/><path d="M 399.58 445.86 L 571.57 443.94 L 571.98 514.69 L 399.82 515.6 L 400.22 444.01" fill="#ffc700" stroke="none" pointer-events="none"/><path d="M 400 444.5 M 400 444.5 C 434.16 446.22 467.15 445.81 570 444.5 M 400 444.5 C 459.93 443.37 519 444.12 570 444.5 M 570 444.5 C 571.13 468.88 569.66 490.36 570 514.5 M 570 444.5 C 570.5 463.33 569.05 483.02 570 514.5 M 570 514.5 C 529.32 517.73 485.84 513.99 400 514.5 M 570 514.5 C 529.83 513.84 491.02 512.54 400 514.5 M 400 514.5 C 398.89 500.79 400.48 485.51 400 444.5 M 400 514.5 C 399.7 498.37 400.05 482.24 400 444.5" fill="none" stroke="#000000" stroke-width="2" stroke-linejoin="round" stroke-linecap="round" stroke-miterlimit="10" pointer-events="none"/><path d="M 394.58 440.86 L 566.57 438.94 L 566.98 509.69 L 394.82 510.6 L 395.22 439.01" fill="#ffc700" stroke="none" pointer-events="none"/><path d="M 395 439.5 M 395 439.5 C 429.16 441.22 462.15 440.81 565 439.5 M 395 439.5 C 454.93 438.37 514 439.12 565 439.5 M 565 439.5 C 566.13 463.88 564.66 485.36 565 509.5 M 565 439.5 C 565.5 458.33 564.05 478.02 565 509.5 M 565 509.5 C 524.32 512.73 480.84 508.99 395 509.5 M 565 509.5 C 524.83 508.84 486.02 507.54 395 509.5 M 395 509.5 C 393.89 495.79 395.48 480.51 395 439.5 M 395 509.5 C 394.7 493.37 395.05 477.24 395 439.5" fill="none" stroke="#000000" stroke-width="2" stroke-linejoin="round" stroke-linecap="round" stroke-miterlimit="10" pointer-events="none"/></g></g></svg>