<?xml version="1.0" encoding="UTF-8"?>
<!DOCTYPE svg PUBLIC "-//W3C//DTD SVG 1.1//EN" "http://www.w3.org/Graphics/SVG/1.1/DTD/svg11.dtd">
<svg xmlns="http://www.w3.org/2000/svg" xmlns:xlink="http://www.w3.org/1999/xlink" version="1.1" width="1921px" height="765px" viewBox="-0.5 -0.5 1921 765"><defs><style type="text/css">@import url(https://fonts.googleapis.com/css?family=Architects+Daughter);&#xa;@import url(https://fonts.googleapis.com/css?family=Architects+Daughter);&#xa;</style></defs><g><rect x="0" y="0" width="1920" height="764" fill="none" stroke="none" pointer-events="all"/><path d="M 879.58 448.82 L 1049.14 447.79 L 1050.2 517.6 L 880.84 519.96 L 878.6 449.77" fill="#f24e1e" stroke="none" pointer-events="none"/><path d="M 880 449.5 M 880 449.5 C 926.97 452.07 975.96 450.61 1050 449.5 M 880 449.5 C 924.42 450.34 969.96 450.38 1050 449.5 M 1050 449.5 C 1052.11 478.92 1050.49 506.04 1050 519.5 M 1050 449.5 C 1049.04 468.67 1049.69 486.41 1050 519.5 M 1050 519.5 C 999.68 519.14 946.99 518.4 880 519.5 M 1050 519.5 C 1003.11 519.18 954.87 520.02 880 519.5 M 880 519.5 C 878.84 503.16 880.16 486.89 880 449.5 M 880 519.5 C 880.56 497.38 880.05 474.91 880 449.5" fill="none" stroke="#000000" stroke-width="2" stroke-linejoin="round" stroke-linecap="round" stroke-miterlimit="10" pointer-events="none"/><path d="M 874.58 443.82 L 1044.14 442.79 L 1045.2 512.6 L 875.84 514.96 L 873.6 444.77" fill="#f24e1e" stroke="none" pointer-events="none"/><path d="M 875 444.5 M 875 444.5 C 921.97 447.07 970.96 445.61 1045 444.5 M 875 444.5 C 919.42 445.34 964.96 445.38 1045 444.5 M 1045 444.5 C 1047.11 473.92 1045.49 501.04 1045 514.5 M 1045 444.5 C 1044.04 463.67 1044.69 481.41 1045 514.5 M 1045 514.5 C 994.68 514.14 941.99 513.4 875 514.5 M 1045 514.5 C 998.11 514.18 949.87 515.02 875 514.5 M 875 514.5 C 873.84 498.16 875.16 481.89 875 444.5 M 875 514.5 C 875.56 492.38 875.05 469.91 875 444.5" fill="none" stroke="#000000" stroke-width="2" stroke-linejoin="round" stroke-linecap="round" stroke-miterlimit="10" pointer-events="none"/><path d="M 869.58 438.82 L 1039.14 437.79 L 1040.2 507.6 L 870.84 509.96 L 868.6 439.77" fill="#f24e1e" stroke="none" pointer-events="none"/><path d="M 870 439.5 M 870 439.5 C 916.97 442.07 965.96 440.61 1040 439.5 M 870 439.5 C 914.42 440.34 959.96 440.38 1040 439.5 M 1040 439.5 C 1042.11 468.92 1040.49 496.04 1040 509.5 M 1040 439.5 C 1039.04 458.67 1039.69 476.41 1040 509.5 M 1040 509.5 C 989.68 509.14 936.99 508.4 870 509.5 M 1040 509.5 C 993.11 509.18 944.87 510.02 870 509.5 M 870 509.5 C 868.84 493.16 870.16 476.89 870 439.5 M 870 509.5 C 870.56 487.38 870.05 464.91 870 439.5" fill="none" stroke="#000000" stroke-width="2" stroke-linejoin="round" stroke-linecap="round" stroke-miterlimit="10" pointer-events="none"/><path d="M 1137.58 449.16 L 1309.55 450.65 L 1307.16 519.28 L 1138 521.4 L 1136.87 450.98" fill="#0fa958" stroke="none" pointer-events="none"/><path d="M 1138 449.5 M 1138 449.5 C 1174.17 451.46 1209.15 448.18 1308 449.5 M 1138 449.5 C 1179.67 447.98 1221.8 448.8 1308 449.5 M 1308 449.5 C 1309.04 472.75 1308.12 495.59 1308 519.5 M 1308 449.5 C 1308.75 464.95 1309.39 482.35 1308 519.5 M 1308 519.5 C 1268.62 518.4 1233.46 519.17 1138 519.5 M 1308 519.5 C 1272.56 517.89 1238.9 519.37 1138 519.5 M 1138 519.5 C 1140.41 500.27 1140.45 478.16 1138 449.5 M 1138 519.5 C 1137.71 504.38 1137.35 489.97 1138 449.5" fill="none" stroke="#000000" stroke-width="2" stroke-linejoin="round" stroke-linecap="round" stroke-miterlimit="10" pointer-events="none"/><path d="M 1132.58 444.16 L 1304.55 445.65 L 1302.16 514.28 L 1133 516.4 L 1131.87 445.98" fill="#0fa958" stroke="none" pointer-events="none"/><path d="M 1133 444.5 M 1133 444.5 C 1169.17 446.46 1204.15 443.18 1303 444.5 M 1133 444.5 C 1174.67 442.98 1216.8 443.8 1303 444.5 M 1303 444.5 C 1304.04 467.75 1303.12 490.59 1303 514.5 M 1303 444.5 C 1303.75 459.95 1304.39 477.35 1303 514.5 M 1303 514.5 C 1263.62 513.4 1228.46 514.17 1133 514.5 M 1303 514.5 C 1267.56 512.89 1233.9 514.37 1133 514.5 M 1133 514.5 C 1135.41 495.27 1135.45 473.16 1133 444.5 M 1133 514.5 C 1132.71 499.38 1132.35 484.97 1133 444.5" fill="none" stroke="#000000" stroke-width="2" stroke-linejoin="round" stroke-linecap="round" stroke-miterlimit="10" pointer-events="none"/><path d="M 1127.58 439.16 L 1299.55 440.65 L 1297.16 509.28 L 1128 511.4 L 1126.87 440.98" fill="#0fa958" stroke="none" pointer-events="none"/><path d="M 1128 439.5 M 1128 439.5 C 1164.17 441.46 1199.15 438.18 1298 439.5 M 1128 439.5 C 1169.67 437.98 1211.8 438.8 1298 439.5 M 1298 439.5 C 1299.04 462.75 1298.12 485.59 1298 509.5 M 1298 439.5 C 1298.75 454.95 1299.39 472.35 1298 509.5 M 1298 509.5 C 1258.62 508.4 1223.46 509.17 1128 509.5 M 1298 509.5 C 1262.56 507.89 1228.9 509.37 1128 509.5 M 1128 509.5 C 1130.41 490.27 1130.45 468.16 1128 439.5 M 1128 509.5 C 1127.71 494.38 1127.35 479.97 1128 439.5" fill="none" stroke="#000000" stroke-width="2" stroke-linejoin="round" stroke-linecap="round" stroke-miterlimit="10" pointer-events="none"/><path d="M 975 439.5 M 975 439.5 C 974.58 348.48 1015.74 303.94 1095 304.5 M 975 439.5 C 976.42 349.99 1016.93 303.38 1095 304.5 M 1095 304.5 C 1173.33 303.56 1216.29 345.76 1215 431.26 M 1095 304.5 C 1175.66 304.29 1215.31 347.71 1215 431.26" fill="none" stroke="#000000" stroke-width="2" stroke-linejoin="round" stroke-linecap="round" stroke-miterlimit="10" stroke-dasharray="6 6" pointer-events="none"/><path d="M 1212.58 428.97 C 1212.58 428.97 1212.58 428.97 1212.58 428.97 M 1212.58 428.97 C 1212.58 428.97 1212.58 428.97 1212.58 428.97" fill="none" stroke="#000000" stroke-linejoin="round" stroke-linecap="round" stroke-miterlimit="10" pointer-events="none"/><path d="M 1215 437.26 M 1215 437.26 C 1213.99 434.86 1213.3 431.45 1212.33 429.26 M 1215 437.26 C 1214.15 435.16 1213.15 432.47 1212.33 429.26 M 1212.33 429.26 C 1212.89 429.51 1213.47 430.02 1215 431.26 M 1212.33 429.26 C 1213.38 429.93 1214.34 430.53 1215 431.26 M 1215 431.26 C 1215.71 431.07 1216.23 430.21 1217.67 429.26 M 1215 431.26 C 1215.97 430.5 1216.83 429.84 1217.67 429.26 M 1217.67 429.26 C 1216.14 432.89 1214.87 435.84 1215 437.26 M 1217.67 429.26 C 1217.2 430.94 1216.3 433.14 1215 437.26" fill="none" stroke="#000000" stroke-width="2" stroke-linejoin="round" stroke-linecap="round" stroke-miterlimit="10" pointer-events="none"/><path d="M 793 479.5 M 793 479.5 C 811.63 477.64 831.7 478.68 859.76 479.5 M 793 479.5 C 811.07 480.08 829.27 480.14 859.76 479.5" fill="none" stroke="#000000" stroke-width="2" stroke-linejoin="round" stroke-linecap="round" stroke-miterlimit="10" stroke-dasharray="6 6" pointer-events="none"/><path d="M 859.49 477.14 C 859.49 477.14 859.49 477.14 859.49 477.14 M 859.49 477.14 C 859.49 477.14 859.49 477.14 859.49 477.14" fill="none" stroke="#000000" stroke-linejoin="round" stroke-linecap="round" stroke-miterlimit="10" pointer-events="none"/><path d="M 867.76 479.5 M 867.76 479.5 C 865.4 479.61 864.05 480.98 859.76 482.17 M 867.76 479.5 C 865.87 480.01 864.25 480.7 859.76 482.17 M 859.76 482.17 C 859.23 480.12 859.75 478.77 859.76 476.83 M 859.76 482.17 C 859.88 480.83 859.69 479.44 859.76 476.83 M 859.76 476.83 C 861.83 477.92 864.23 477.98 867.76 479.5 M 859.76 476.83 C 863.04 477.42 866.26 479.09 867.76 479.5" fill="none" stroke="#000000" stroke-width="2" stroke-linejoin="round" stroke-linecap="round" stroke-miterlimit="10" pointer-events="none"/><path d="M 622.58 449.84 L 791.36 448.36 L 794.09 518.64 L 621.33 520.28 L 622.41 449.39" fill="#a259ff" stroke="none" pointer-events="none"/><path d="M 623 449.5 M 623 449.5 C 663.57 449.64 704.55 450.71 793 449.5 M 623 449.5 C 659.18 448.66 694.48 447.05 793 449.5 M 793 449.5 C 791.92 474.4 792.38 502.7 793 519.5 M 793 449.5 C 793.77 475.5 792.37 502.22 793 519.5 M 793 519.5 C 745.5 520.93 699.41 520.7 623 519.5 M 793 519.5 C 750.47 520.71 705.95 519.48 623 519.5 M 623 519.5 C 624.56 504.48 622.02 488.7 623 449.5 M 623 519.5 C 622.43 492.38 622.35 466.07 623 449.5" fill="none" stroke="#000000" stroke-width="2" stroke-linejoin="round" stroke-linecap="round" stroke-miterlimit="10" pointer-events="none"/><path d="M 617.58 444.84 L 786.36 443.36 L 789.09 513.64 L 616.33 515.28 L 617.41 444.39" fill="#a259ff" stroke="none" pointer-events="none"/><path d="M 618 444.5 M 618 444.5 C 658.57 444.64 699.55 445.71 788 444.5 M 618 444.5 C 654.18 443.66 689.48 442.05 788 444.5 M 788 444.5 C 786.92 469.4 787.38 497.7 788 514.5 M 788 444.5 C 788.77 470.5 787.37 497.22 788 514.5 M 788 514.5 C 740.5 515.93 694.41 515.7 618 514.5 M 788 514.5 C 745.47 515.71 700.95 514.48 618 514.5 M 618 514.5 C 619.56 499.48 617.02 483.7 618 444.5 M 618 514.5 C 617.43 487.38 617.35 461.07 618 444.5" fill="none" stroke="#000000" stroke-width="2" stroke-linejoin="round" stroke-linecap="round" stroke-miterlimit="10" pointer-events="none"/><path d="M 612.58 439.84 L 781.36 438.36 L 784.09 508.64 L 611.33 510.28 L 612.41 439.39" fill="#a259ff" stroke="none" pointer-events="none"/><path d="M 613 439.5 M 613 439.5 C 653.57 439.64 694.55 440.71 783 439.5 M 613 439.5 C 649.18 438.66 684.48 437.05 783 439.5 M 783 439.5 C 781.92 464.4 782.38 492.7 783 509.5 M 783 439.5 C 783.77 465.5 782.37 492.22 783 509.5 M 783 509.5 C 735.5 510.93 689.41 510.7 613 509.5 M 783 509.5 C 740.47 510.71 695.95 509.48 613 509.5 M 613 509.5 C 614.56 494.48 612.02 478.7 613 439.5 M 613 509.5 C 612.43 482.38 612.35 456.07 613 439.5" fill="none" stroke="#000000" stroke-width="2" stroke-linejoin="round" stroke-linecap="round" stroke-miterlimit="10" pointer-events="none"/><path d="M 1394.58 450.18 L 1565.76 451.22 L 1565.06 520.33 L 1396.49 517.72 L 1394.68 450.59" fill="#2e2e2e" stroke="none" pointer-events="none"/><path d="M 1395 449.5 M 1395 449.5 C 1454.77 449.03 1519.75 448.28 1565 449.5 M 1395 449.5 C 1460.43 449.7 1528.32 448.87 1565 449.5 M 1565 449.5 C 1562.85 468.23 1564 488.25 1565 519.5 M 1565 449.5 C 1565.48 473.77 1566.07 496.15 1565 519.5 M 1565 519.5 C 1498.44 520.2 1431.89 521.46 1395 519.5 M 1565 519.5 C 1499.92 519.42 1435.97 518.83 1395 519.5 M 1395 519.5 C 1394.74 501.58 1394.91 479.97 1395 449.5 M 1395 519.5 C 1394.99 501.38 1395.05 483.13 1395 449.5" fill="none" stroke="#000000" stroke-width="2" stroke-linejoin="round" stroke-linecap="round" stroke-miterlimit="10" pointer-events="none"/><path d="M 1389.58 445.18 L 1560.76 446.22 L 1560.06 515.33 L 1391.49 512.72 L 1389.68 445.59" fill="#2e2e2e" stroke="none" pointer-events="none"/><path d="M 1390 444.5 M 1390 444.5 C 1449.77 444.03 1514.75 443.28 1560 444.5 M 1390 444.5 C 1455.43 444.7 1523.32 443.87 1560 444.5 M 1560 444.5 C 1557.85 463.23 1559 483.25 1560 514.5 M 1560 444.5 C 1560.48 468.77 1561.07 491.15 1560 514.5 M 1560 514.5 C 1493.44 515.2 1426.89 516.46 1390 514.5 M 1560 514.5 C 1494.92 514.42 1430.97 513.83 1390 514.5 M 1390 514.5 C 1389.74 496.58 1389.91 474.97 1390 444.5 M 1390 514.5 C 1389.99 496.38 1390.05 478.13 1390 444.5" fill="none" stroke="#000000" stroke-width="2" stroke-linejoin="round" stroke-linecap="round" stroke-miterlimit="10" pointer-events="none"/><path d="M 1384.58 440.18 L 1555.76 441.22 L 1555.06 510.33 L 1386.49 507.72 L 1384.68 440.59" fill="#2e2e2e" stroke="none" pointer-events="none"/><path d="M 1385 439.5 M 1385 439.5 C 1444.77 439.03 1509.75 438.28 1555 439.5 M 1385 439.5 C 1450.43 439.7 1518.32 438.87 1555 439.5 M 1555 439.5 C 1552.85 458.23 1554 478.25 1555 509.5 M 1555 439.5 C 1555.48 463.77 1556.07 486.15 1555 509.5 M 1555 509.5 C 1488.44 510.2 1421.89 511.46 1385 509.5 M 1555 509.5 C 1489.92 509.42 1425.97 508.83 1385 509.5 M 1385 509.5 C 1384.74 491.58 1384.91 469.97 1385 439.5 M 1385 509.5 C 1384.99 491.38 1385.05 473.13 1385 439.5" fill="none" stroke="#000000" stroke-width="2" stroke-linejoin="round" stroke-linecap="round" stroke-miterlimit="10" pointer-events="none"/><path d="M 445 439.5 M 445 439.5 C 444.99 406.45 442.92 376.01 445 324.5 M 445 439.5 C 444.85 407.73 445.95 374.89 445 324.5 M 445 324.5 C 528.22 323.58 608.28 321.84 698 324.5 M 445 324.5 C 528.84 323.11 614.04 324.46 698 324.5 M 698 324.5 C 697.81 367.34 697.7 405.89 698 431.26 M 698 324.5 C 698.38 366.79 698.74 407.14 698 431.26" fill="none" stroke="#000000" stroke-width="2" stroke-linejoin="round" stroke-linecap="round" stroke-miterlimit="10" stroke-dasharray="6 6" pointer-events="none"/><path d="M 695.05 429.59 C 695.05 429.59 695.05 429.59 695.05 429.59 M 695.05 429.59 C 695.05 429.59 695.05 429.59 695.05 429.59" fill="none" stroke="#000000" stroke-linejoin="round" stroke-linecap="round" stroke-miterlimit="10" pointer-events="none"/><path d="M 698 437.26 M 698 437.26 C 697.73 435.23 695.83 431.73 695.33 429.26 M 698 437.26 C 696.66 434.2 696.11 432.23 695.33 429.26 M 695.33 429.26 C 696.38 430.34 697.39 430.68 698 431.26 M 695.33 429.26 C 696.41 430.18 697.51 430.76 698 431.26 M 698 431.26 C 698.68 430.93 699.18 430.46 700.67 429.26 M 698 431.26 C 698.7 430.96 699.15 430.33 700.67 429.26 M 700.67 429.26 C 700.38 431.32 699.86 432.54 698 437.26 M 700.67 429.26 C 699.85 431.06 699.14 433.01 698 437.26" fill="none" stroke="#000000" stroke-width="2" stroke-linejoin="round" stroke-linecap="round" stroke-miterlimit="10" pointer-events="none"/><path d="M 364.58 450.86 L 536.57 448.94 L 536.98 519.69 L 364.82 520.6 L 365.22 449.01" fill="#ffc700" stroke="none" pointer-events="none"/><path d="M 365 449.5 M 365 449.5 C 399.16 451.22 432.15 450.81 535 449.5 M 365 449.5 C 424.93 448.37 484 449.12 535 449.5 M 535 449.5 C 536.13 473.88 534.66 495.36 535 519.5 M 535 449.5 C 535.5 468.33 534.05 488.02 535 519.5 M 535 519.5 C 494.32 522.73 450.84 518.99 365 519.5 M 535 519.5 C 494.83 518.84 456.02 517.54 365 519.5 M 365 519.5 C 363.89 505.79 365.48 490.51 365 449.5 M 365 519.5 C 364.7 503.37 365.05 487.24 365 449.5" fill="none" stroke="#000000" stroke-width="2" stroke-linejoin="round" stroke-linecap="round" stroke-miterlimit="10" pointer-events="none"/><path d="M 359.58 445.86 L 531.57 443.94 L 531.98 514.69 L 359.82 515.6 L 360.22 444.01" fill="#ffc700" stroke="none" pointer-events="none"/><path d="M 360 444.5 M 360 444.5 C 394.16 446.22 427.15 445.81 530 444.5 M 360 444.5 C 419.93 443.37 479 444.12 530 444.5 M 530 444.5 C 531.13 468.88 529.66 490.36 530 514.5 M 530 444.5 C 530.5 463.33 529.05 483.02 530 514.5 M 530 514.5 C 489.32 517.73 445.84 513.99 360 514.5 M 530 514.5 C 489.83 513.84 451.02 512.54 360 514.5 M 360 514.5 C 358.89 500.79 360.48 485.51 360 444.5 M 360 514.5 C 359.7 498.37 360.05 482.24 360 444.5" fill="none" stroke="#000000" stroke-width="2" stroke-linejoin="round" stroke-linecap="round" stroke-miterlimit="10" pointer-events="none"/><path d="M 354.58 440.86 L 526.57 438.94 L 526.98 509.69 L 354.82 510.6 L 355.22 439.01" fill="#ffc700" stroke="none" pointer-events="none"/><path d="M 355 439.5 M 355 439.5 C 389.16 441.22 422.15 440.81 525 439.5 M 355 439.5 C 414.93 438.37 474 439.12 525 439.5 M 525 439.5 C 526.13 463.88 524.66 485.36 525 509.5 M 525 439.5 C 525.5 458.33 524.05 478.02 525 509.5 M 525 509.5 C 484.32 512.73 440.84 508.99 355 509.5 M 525 509.5 C 484.83 508.84 446.02 507.54 355 509.5 M 355 509.5 C 353.89 495.79 355.48 480.51 355 439.5 M 355 509.5 C 354.7 493.37 355.05 477.24 355 439.5" fill="none" stroke="#000000" stroke-width="2" stroke-linejoin="round" stroke-linecap="round" stroke-miterlimit="10" pointer-events="none"/></g></svg>