<?xml version="1.0" encoding="UTF-8"?>
<!DOCTYPE svg PUBLIC "-//W3C//DTD SVG 1.1//EN" "http://www.w3.org/Graphics/SVG/1.1/DTD/svg11.dtd">
<svg xmlns="http://www.w3.org/2000/svg" xmlns:xlink="http://www.w3.org/1999/xlink" version="1.1" width="482px" height="152px" viewBox="-0.5 -0.5 482 152"><defs/><g><rect x="131" y="11" width="220" height="70" fill="#ffffff" stroke="#b3b3b3" stroke-width="2" pointer-events="all"/><path d="M 131 11 L 351 81 M 131 81 L 351 11" fill="none" stroke="#b3b3b3" stroke-width="2" stroke-miterlimit="10" pointer-events="all"/><rect x="11" y="101" width="460" height="40" rx="6" ry="6" fill="#ffffff" stroke="none" pointer-events="all"/><rect x="11" y="101" width="460" height="40" rx="20" ry="20" fill="none" stroke="#b3b3b3" stroke-width="2" pointer-events="all"/><rect x="31" y="111" width="20" height="20" fill="none" stroke="#b3b3b3" stroke-width="2" pointer-events="all"/><path d="M 31 111 L 51 131 M 31 131 L 51 111" fill="none" stroke="#b3b3b3" stroke-width="2" stroke-miterlimit="10" pointer-events="all"/><rect x="401" y="111" width="20" height="20" fill="none" stroke="#b3b3b3" stroke-width="2" pointer-events="all"/><path d="M 401 111 L 421 131 M 401 131 L 421 111" fill="none" stroke="#b3b3b3" stroke-width="2" stroke-miterlimit="10" pointer-events="all"/><rect x="431" y="111" width="20" height="20" fill="none" stroke="#b3b3b3" stroke-width="2" pointer-events="all"/><path d="M 431 111 L 451 131 M 431 131 L 451 111" fill="none" stroke="#b3b3b3" stroke-width="2" stroke-miterlimit="10" pointer-events="all"/></g></svg>